<mxfile host="app.diagrams.net" modified="2021-11-15T08:16:45.605Z" agent="5.0 (Macintosh)" etag="HjnElRiIxxp8266_ey84" version="15.7.3" type="github">
  <diagram id="voBUmRFwYxQ89O---q60" name="Page-1">
    <mxGraphModel dx="655" dy="621" grid="1" gridSize="10" guides="1" tooltips="1" connect="1" arrows="1" fold="1" page="1" pageScale="1" pageWidth="850" pageHeight="1100" math="0" shadow="0">
      <root>
        <mxCell id="0" />
        <mxCell id="1" parent="0" />
        <mxCell id="vG0-a5lcvU5F1nQdlLLP-1" value="Paper" style="rounded=1;whiteSpace=wrap;html=1;" vertex="1" parent="1">
          <mxGeometry x="70" y="270" width="120" height="60" as="geometry" />
        </mxCell>
        <mxCell id="vG0-a5lcvU5F1nQdlLLP-2" value="&lt;div&gt;label_data{&lt;/div&gt;&lt;div&gt;q_id: Q_123,&lt;/div&gt;&lt;div&gt;page_id: xxx&lt;br&gt;&lt;/div&gt;&lt;div&gt;}&lt;/div&gt;" style="rounded=1;whiteSpace=wrap;html=1;" vertex="1" parent="1">
          <mxGeometry x="365" y="200" width="120" height="60" as="geometry" />
        </mxCell>
        <mxCell id="vG0-a5lcvU5F1nQdlLLP-4" value="PaperDotMatrix" style="text;whiteSpace=wrap;html=1;" vertex="1" parent="1">
          <mxGeometry x="370" y="170" width="110" height="30" as="geometry" />
        </mxCell>
        <mxCell id="vG0-a5lcvU5F1nQdlLLP-5" value="&lt;div&gt;label_data{&lt;/div&gt;&lt;div&gt;q_id: Q_123,&lt;/div&gt;&lt;div&gt;page_id: yyy&lt;br&gt;&lt;/div&gt;&lt;div&gt;}&lt;/div&gt;" style="rounded=1;whiteSpace=wrap;html=1;" vertex="1" parent="1">
          <mxGeometry x="360" y="310" width="120" height="60" as="geometry" />
        </mxCell>
        <mxCell id="vG0-a5lcvU5F1nQdlLLP-6" value="PaperDotMatrix" style="text;whiteSpace=wrap;html=1;" vertex="1" parent="1">
          <mxGeometry x="370" y="280" width="110" height="30" as="geometry" />
        </mxCell>
        <mxCell id="vG0-a5lcvU5F1nQdlLLP-9" value="" style="endArrow=classic;html=1;rounded=0;exitX=1.008;exitY=0.367;exitDx=0;exitDy=0;exitPerimeter=0;entryX=0;entryY=0.75;entryDx=0;entryDy=0;" edge="1" parent="1" source="vG0-a5lcvU5F1nQdlLLP-1" target="vG0-a5lcvU5F1nQdlLLP-2">
          <mxGeometry width="50" height="50" relative="1" as="geometry">
            <mxPoint x="380" y="410" as="sourcePoint" />
            <mxPoint x="430" y="360" as="targetPoint" />
            <Array as="points" />
          </mxGeometry>
        </mxCell>
        <mxCell id="vG0-a5lcvU5F1nQdlLLP-10" value="&lt;div&gt;发布&lt;/div&gt;" style="text;html=1;align=center;verticalAlign=middle;resizable=0;points=[];autosize=1;strokeColor=none;fillColor=none;" vertex="1" parent="1">
          <mxGeometry x="210" y="250" width="40" height="20" as="geometry" />
        </mxCell>
        <mxCell id="vG0-a5lcvU5F1nQdlLLP-11" value="" style="endArrow=classic;html=1;rounded=0;exitX=1.008;exitY=0.367;exitDx=0;exitDy=0;exitPerimeter=0;entryX=0;entryY=0.5;entryDx=0;entryDy=0;" edge="1" parent="1" target="vG0-a5lcvU5F1nQdlLLP-5">
          <mxGeometry width="50" height="50" relative="1" as="geometry">
            <mxPoint x="200.96000000000004" y="302.02" as="sourcePoint" />
            <mxPoint x="375" y="255" as="targetPoint" />
            <Array as="points" />
          </mxGeometry>
        </mxCell>
        <mxCell id="vG0-a5lcvU5F1nQdlLLP-13" value="发布" style="text;html=1;align=center;verticalAlign=middle;resizable=0;points=[];autosize=1;strokeColor=none;fillColor=none;" vertex="1" parent="1">
          <mxGeometry x="210" y="310" width="40" height="20" as="geometry" />
        </mxCell>
      </root>
    </mxGraphModel>
  </diagram>
</mxfile>
